<?xml version="1.0" encoding="iso-8859-1"?>
<!-- Generator: Adobe Illustrator 16.0.0, SVG Export Plug-In . SVG Version: 6.00 Build 0)  -->
<!DOCTYPE svg PUBLIC "-//W3C//DTD SVG 1.1//EN" "http://www.w3.org/Graphics/SVG/1.1/DTD/svg11.dtd">
<svg version="1.1" id="&#x30EC;&#x30A4;&#x30E4;&#x30FC;_1"
	 xmlns="http://www.w3.org/2000/svg" xmlns:xlink="http://www.w3.org/1999/xlink" x="0px" y="0px" width="240px" height="100px"
	 viewBox="0 0 240 100" style="enable-background:new 0 0 240 100;" xml:space="preserve">
<g>
	<circle style="fill:#FFFFFF;" cx="36.403" cy="33.363" r="9.741"/>
	<g>
		
			<rect x="42.721" y="46.027" transform="matrix(0.8421 -0.5393 0.5393 0.8421 -18.3242 31.6701)" style="fill:#FFFFFF;" width="4.4" height="2.2"/>
		<polygon style="fill:#FFFFFF;" points="50.499,55.834 50.829,52.271 47.886,47.677 44.182,50.051 47.124,54.645 		"/>
		<path style="fill:#FFFFFF;" d="M104.496,73.453c0.465,0.497,0.929,0.992-0.002-0.003c-0.931-0.994-0.468-0.499-0.003-0.002
			c-1.864-1.99-4.989-2.095-6.982-0.231l-9.982,9.064c0,0-25.894-32.914-26.111-33.277s-0.316-0.557,0.192-0.992l24.752-22.449
			c1.594-1.357,1.787-3.749,0.43-5.343c-1.357-1.595-3.75-1.786-5.344-0.431L53.241,38.543l-1.674,18.958L34.03,51.317l-10.5,6.98
			l-8.212-11.696c-1.127-1.765-3.47-2.281-5.234-1.154c-1.765,1.125-2.282,3.469-1.156,5.234l9.674,16.73
			c1.379,2.413,4.253,2.762,6.866,1.392l15.025-6.896c0.417-0.322,1.072-0.165,1.484,0.247l9.105,10.008
			c0.245,0.245,0.3,0.49-0.083,0.594L8.228,86.507c-2.599,0.835-4.027,3.619-3.191,6.217s3.619,4.028,6.217,3.191l51.449-10.863
			c2.42-0.66,3.52-0.66,5.06,0.439l14.113,10.948c3.093,2.203,5.965,2.262,8.327,0.052l14.061-16.058
			C106.254,78.57,106.358,75.446,104.496,73.453z M55.632,63.847c-0.574,0.367-1.341,0.199-1.71-0.375
			c-0.368-0.575-0.2-1.342,0.375-1.711c0.574-0.367,1.341-0.2,1.71,0.375C56.375,62.711,56.207,63.478,55.632,63.847z
			 M59.237,69.473c-0.576,0.368-1.341,0.2-1.71-0.374c-0.368-0.576-0.201-1.341,0.374-1.711c0.576-0.368,1.341-0.2,1.71,0.375
			C59.979,68.338,59.813,69.104,59.237,69.473z"/>
	</g>
	<g>
		<path style="fill:#FFFFFF;" d="M113.23,22.486l-3.468-15.794l-19.332,4.245l0.536,2.442l-3.068,0.675
			c-0.871,0.191-1.424,1.055-1.232,1.926l1.702,7.75c0.19,0.871,1.054,1.423,1.925,1.232l3.07-0.674l0.536,2.441L113.23,22.486z
			 M90.224,22.951l-1.547-7.041l2.715-0.596l1.547,7.04L90.224,22.951z"/>
		<path style="fill:#FFFFFF;" d="M94.324,28.665l0.531,2.417c0.233,1.068,1.29,1.744,2.358,1.51l15.463-3.396
			c1.069-0.234,1.744-1.291,1.51-2.358l-0.531-2.417L94.324,28.665z"/>
		<path style="fill:#FFFFFF;" d="M89.476,6.586l0.53,2.418l19.332-4.246l-0.53-2.417c-0.235-1.067-1.291-1.744-2.359-1.509
			L90.984,4.228C89.916,4.462,89.24,5.519,89.476,6.586z"/>
	</g>
</g>
<g>
	<path style="fill:#FFFFFF;" d="M112.109,97.78c0.53-5.237,0.928-11.259,1.192-18.062c0.266-6.803,0.397-12.779,0.397-17.93
		c2.109,0.035,3.875,0.053,5.299,0.053c1.528,0,3.026-0.026,4.494-0.079c1.467-0.053,3.018-0.079,4.652-0.079
		c2.038,0,3.861,0.115,5.47,0.343c1.607,0.229,3.035,0.756,4.283,1.582c1.247,0.827,2.175,1.829,2.78,3.006
		c0.607,1.178,0.91,2.549,0.91,4.113c0,0.985-0.114,1.921-0.343,2.808c-0.229,0.889-0.567,1.724-1.015,2.506
		c-0.449,0.781-0.98,1.467-1.596,2.057c-0.615,0.589-1.227,1.055-1.832,1.396c-0.607,0.344-1.297,0.638-2.07,0.884
		c-0.773,0.247-1.811,0.545-3.111,0.896l1.793,3.48c0.58,1.107,1.679,3.095,3.296,5.959l2.663,4.667
		c0.141,0.246,0.563,1.046,1.266,2.399c-2.15-0.035-3.569-0.053-4.257-0.053c-0.846,0-2.336,0.018-4.468,0.053l-2.922-7.014
		c-0.51-1.071-1.124-2.337-1.843-3.797l-3.186-6.407c-0.316-0.598-0.755-1.494-1.316-2.689c1.179,0.211,2.252,0.316,3.22,0.316
		c1.513,0,2.893-0.246,4.143-0.738c1.249-0.492,2.207-1.252,2.876-2.281c0.668-1.027,1.003-2.148,1.003-3.361
		c0-0.738-0.145-1.424-0.436-2.057c-0.289-0.633-0.777-1.169-1.463-1.608c-0.686-0.438-1.503-0.721-2.452-0.844
		c-0.949-0.122-1.898-0.185-2.848-0.185c-0.527,0-1.248,0.01-2.162,0.026c-0.914,0.018-2.039,0.026-3.375,0.026l-0.471,10.837
		l-0.497,19.775l-4.091-0.053C115.443,97.728,114.115,97.745,112.109,97.78z"/>
	<path style="fill:#FFFFFF;" d="M172.97,97.78c-1.549-0.035-2.736-0.053-3.563-0.053c-1.038,0-2.216,0.018-3.535,0.053l0.048-4.377
		c-0.492,0.738-0.923,1.331-1.292,1.78c-0.369,0.447-0.853,0.887-1.45,1.318c-0.597,0.431-1.248,0.773-1.95,1.027
		c-0.703,0.255-1.507,0.466-2.412,0.633c-0.905,0.168-1.867,0.251-2.887,0.251c-1.968,0-3.682-0.286-5.14-0.856
		c-1.459-0.571-2.614-1.438-3.467-2.598s-1.278-2.821-1.278-4.983v-0.554l0.427-6.803l0.4-8.965
		c0.018-0.721,0.027-1.617,0.027-2.689c1.667,0.035,2.975,0.053,3.923,0.053c1,0,2.212-0.018,3.634-0.053l-0.876,12.023
		c-0.054,0.932-0.094,1.719-0.12,2.359c-0.026,0.643-0.04,1.104-0.04,1.385c0,1.266,0.189,2.316,0.566,3.15
		c0.378,0.836,1.036,1.473,1.976,1.912s1.945,0.659,3.016,0.659c1.019,0,1.985-0.193,2.898-0.58c0.825-0.352,1.531-0.844,2.12-1.477
		c0.588-0.633,1.084-1.485,1.488-2.558c0.299-0.773,0.526-1.846,0.685-3.217c0.123-0.967,0.237-2.627,0.343-4.983
		c0.146-2.848,0.246-5.739,0.302-8.675c1.742,0.035,3.07,0.053,3.986,0.053c1.038,0,2.208-0.018,3.511-0.053
		c-0.21,2.514-0.43,5.656-0.657,9.426c-0.228,3.771-0.386,6.883-0.473,9.334C173.092,92.178,173.021,94.863,172.97,97.78z"/>
	<path style="fill:#FFFFFF;" d="M179.319,97.78c0.401-3.99,0.738-8.473,1.009-13.447c0.271-4.974,0.424-9.431,0.459-13.368
		c1.619,0.035,2.912,0.053,3.881,0.053c1.144,0,2.358-0.018,3.643-0.053l-0.293,4.482c0.544-0.773,1.023-1.389,1.437-1.846
		s0.94-0.905,1.583-1.345c0.642-0.438,1.327-0.791,2.057-1.055s1.547-0.475,2.452-0.633s1.851-0.237,2.835-0.237
		c1.565,0,3.063,0.197,4.497,0.594c1.433,0.395,2.588,1.023,3.468,1.885c0.879,0.861,1.459,1.803,1.74,2.821
		c0.281,1.02,0.422,2.101,0.422,3.243c0,0.475-0.026,1.23-0.079,2.268l-0.545,11.522c-0.069,1.6-0.112,3.306-0.13,5.115
		c-1.391-0.035-2.579-0.053-3.564-0.053c-1.338,0-2.685,0.018-4.04,0.053c0.141-1.529,0.317-4.196,0.529-8.003
		c0.212-3.805,0.317-6.323,0.317-7.554c0-1.388-0.219-2.505-0.658-3.349s-1.12-1.485-2.042-1.925
		c-0.922-0.438-1.919-0.659-2.99-0.659c-1.054,0-2.038,0.202-2.95,0.606c-0.914,0.405-1.704,0.993-2.371,1.767
		c-0.703,0.791-1.247,1.767-1.634,2.927c-0.404,1.23-0.703,3.261-0.896,6.091c-0.178,2.514-0.318,5.88-0.425,10.099
		c-1.355-0.035-2.579-0.053-3.671-0.053C182.251,97.728,180.904,97.745,179.319,97.78z"/>
</g>
</svg>
