<?xml version="1.0" encoding="UTF-8" standalone="no"?>
<!DOCTYPE svg PUBLIC "-//W3C//DTD SVG 1.1//EN" "http://www.w3.org/Graphics/SVG/1.1/DTD/svg11.dtd">
<svg width="100%" height="100%" viewBox="0 0 512 512" version="1.1" xmlns="http://www.w3.org/2000/svg" xmlns:xlink="http://www.w3.org/1999/xlink" xml:space="preserve" xmlns:serif="http://www.serif.com/" style="fill-rule:evenodd;clip-rule:evenodd;stroke-linejoin:round;stroke-miterlimit:2;">
    <g transform="matrix(1.95559,0,0,1.95559,-424.103,-390.38)">
        <circle cx="347.774" cy="330.53" r="98.18" style="fill:white;"/>
    </g>
    <g>
        <path d="M184.025,259.35L210.447,259.35C217.4,259.35 223.056,265.002 223.056,271.955L223.056,346.989C223.056,355.697 230.138,362.781 238.844,362.781L273.158,362.781C281.864,362.781 288.944,355.697 288.944,346.989L288.944,271.955C288.944,265.003 294.602,259.35 301.555,259.35L327.977,259.35C332.389,259.35 335.561,257.856 336.907,255.142C338.254,252.432 337.526,249.001 334.861,245.484L265.849,154.518C263.258,151.106 259.76,149.223 255.999,149.223C252.239,149.223 248.741,151.106 246.15,154.518L177.138,245.484C174.471,249.001 173.745,252.433 175.092,255.142C176.439,257.856 179.613,259.35 184.025,259.35Z" style="fill:rgb(75,75,75);fill-rule:nonzero;"/>
        <path d="M256,0C114.842,0 0.002,114.84 0.002,256C0.002,397.16 114.842,512 256,512C397.158,512 511.998,397.16 511.998,256C511.998,114.84 397.158,0 256,0ZM256,66.785C360.334,66.785 445.216,151.664 445.216,256C445.216,360.336 360.334,445.215 256,445.215C151.666,445.215 66.783,360.336 66.783,256C66.783,151.664 151.667,66.785 256,66.785Z" style="fill:rgb(75,75,75);fill-rule:nonzero;"/>
    </g>
</svg>
