<?xml version="1.0" encoding="UTF-8" standalone="no"?>
<!DOCTYPE svg PUBLIC "-//W3C//DTD SVG 1.1//EN" "http://www.w3.org/Graphics/SVG/1.1/DTD/svg11.dtd">
<svg width="100%" height="100%" viewBox="0 0 24 24" version="1.1" xmlns="http://www.w3.org/2000/svg" xmlns:xlink="http://www.w3.org/1999/xlink" xml:space="preserve" xmlns:serif="http://www.serif.com/" style="fill-rule:evenodd;clip-rule:evenodd;stroke-linejoin:round;stroke-miterlimit:2;">
    <g transform="matrix(3.04667,0,0,3.3126,-40.7658,-33.163)">
        <path d="M21.258,11.822L21.258,15.445C21.258,16.445 20.375,17.256 19.289,17.256L15.35,17.256C14.263,17.256 13.38,16.445 13.38,15.445L13.38,11.822C13.38,10.823 14.263,10.011 15.35,10.011L19.289,10.011C20.375,10.011 21.258,10.823 21.258,11.822Z" style="fill:white;"/>
    </g>
    <path d="M12,16.475C13.65,15.142 14.896,13.858 15.738,12.625C16.579,11.392 17,10.233 17,9.15C17,8.217 16.829,7.421 16.488,6.762C16.146,6.104 15.725,5.571 15.225,5.162C14.725,4.754 14.183,4.458 13.6,4.275C13.017,4.092 12.483,4 12,4C11.517,4 10.983,4.092 10.4,4.275C9.817,4.458 9.275,4.754 8.775,5.162C8.275,5.571 7.854,6.104 7.513,6.762C7.171,7.421 7,8.217 7,9.15C7,10.233 7.421,11.392 8.263,12.625C9.104,13.858 10.35,15.142 12,16.475ZM12,19C9.65,17.267 7.896,15.583 6.738,13.95C5.579,12.317 5,10.717 5,9.15C5,7.967 5.213,6.929 5.638,6.037C6.063,5.146 6.608,4.4 7.275,3.8C7.942,3.2 8.692,2.75 9.525,2.45C10.358,2.15 11.183,2 12,2C12.817,2 13.642,2.15 14.475,2.45C15.308,2.75 16.058,3.2 16.725,3.8C17.392,4.4 17.938,5.146 18.363,6.037C18.788,6.929 19,7.967 19,9.15C19,10.717 18.421,12.317 17.263,13.95C16.104,15.583 14.35,17.267 12,19ZM12,11C12.55,11 13.021,10.804 13.413,10.413C13.804,10.021 14,9.55 14,9C14,8.45 13.804,7.979 13.413,7.587C13.021,7.196 12.55,7 12,7C11.45,7 10.979,7.196 10.588,7.587C10.196,7.979 10,8.45 10,9C10,9.55 10.196,10.021 10.588,10.413C10.979,10.804 11.45,11 12,11ZM5,22L5,20L19,20L19,22L5,22Z" style="fill-rule:nonzero;"/>
</svg>
