<?xml version="1.0" encoding="UTF-8" standalone="no"?>
<!DOCTYPE svg PUBLIC "-//W3C//DTD SVG 1.1//EN" "http://www.w3.org/Graphics/SVG/1.1/DTD/svg11.dtd">
<svg width="100%" height="100%" viewBox="0 0 512 512" version="1.1" xmlns="http://www.w3.org/2000/svg" xmlns:xlink="http://www.w3.org/1999/xlink" xml:space="preserve" xmlns:serif="http://www.serif.com/" style="fill-rule:evenodd;clip-rule:evenodd;stroke-linejoin:round;stroke-miterlimit:2;">
    <g transform="matrix(3.82793,0,0,3.37357,-820.992,-760.959)">
        <path d="M348.228,259.003L348.228,343.894C348.228,362.349 333.245,377.333 314.789,377.333L247.913,377.333C229.457,377.333 214.474,362.349 214.474,343.894L214.474,259.003C214.474,240.548 229.457,225.565 247.913,225.565L314.789,225.565C333.245,225.565 348.228,240.548 348.228,259.003Z" style="fill:white;"/>
    </g>
    <g transform="matrix(0.750007,0,0,0.750007,63.9983,63.9985)">
        <path d="M495.272,423.558C495.272,423.558 426.73,363.606 410.335,347.23C386.272,323.292 376.645,311.764 385.14,292.299C422.295,216.519 409.443,122.445 346.42,59.441C267.185,-19.813 138.681,-19.813 59.436,59.441C-19.809,138.705 -19.809,267.17 59.436,346.444C122.421,409.429 216.524,422.281 292.275,385.135C311.741,376.65 323.297,386.277 347.226,410.35C363.61,426.735 423.534,495.287 423.534,495.287C454.623,526.358 478.543,507.237 492.902,492.897C507.232,478.547 526.362,454.638 495.272,423.558ZM286.017,286.012C240.117,331.883 165.729,331.883 119.848,286.012C73.968,240.141 73.968,165.734 119.848,119.863C165.729,73.992 240.117,73.992 286.017,119.863C331.898,165.734 331.898,240.141 286.017,286.012Z" style="fill:rgb(255,0,0);fill-rule:nonzero;"/>
    </g>
</svg>
